<svg xmlns="http://www.w3.org/2000/svg" width="127.968" height="118.368" viewBox="0 0 400 370" stroke="#000">
  <path fill="#41b883" d="M82 0l34 59 57.3 99L199 203h2l25.72-45L284 59l34-59h-66c-1.77 0-5.06-.14-6.62.57-3.13 1.43-8.8 12.97-10.8 16.43L214.2 52c-3.3 5.54-11.22 18.63-13.2 24h-2c-1.98-5.37-9.9-18.46-13.2-24l-20.38-35c-2-3.46-7.67-15-10.8-16.43-1.56-.7-4.85-.57-6.62-.57H82zm-2 137v233h240V137l-14.28 23-95 164-9.72 18h-2l-9.72-18-95-164L80 137z"/>
  <path fill="#34495e" d="M0 0v370h80V135l76.42 132L199 341h2l31.58-55 75.84-131L319 135l1 26v209h80V0h-74c-9.26.02-8.35 1.05-15.72 14L291.2 47l-77.62 134c-3.7 6.38-10.18 16.46-12.58 23h-2c-2.4-6.54-8.88-16.62-12.58-23L165 144 89.72 14C82.35 1.05 83.26.02 74 0H0zm170 24v1l1-1h-1zm59 0v1l1-1h-1zm-48 19v1l1-1h-1zm37 0v1l1-1h-1z"/>
</svg>
